<svg xmlns="http://www.w3.org/2000/svg" viewBox="0 0 128 128" role="img" aria-label="CPS icon">
  <defs>
    <linearGradient id="cps-bg" x1="0%" x2="100%" y1="0%" y2="100%">
      <stop offset="0%" stop-color="#1c6ea4" />
      <stop offset="100%" stop-color="#0f3f60" />
    </linearGradient>
    <linearGradient id="cps-node" x1="0%" x2="100%" y1="0%" y2="100%">
      <stop offset="0%" stop-color="#ffe3c9" />
      <stop offset="100%" stop-color="#f7b27e" />
    </linearGradient>
  </defs>

  <rect width="128" height="128" rx="28" fill="url(#cps-bg)" />
  <path
    d="M34 32c16-11 40-9 54 5 13 13 16 35 8 52-4 9-11 16-19 21l-8-12c6-4 10-9 13-15 5-12 3-28-6-37-10-10-27-12-39-4l-3-5z"
    fill="#86c0e6"
    fill-opacity=".78"
  />
  <circle cx="39" cy="45" r="8" fill="url(#cps-node)" />
  <circle cx="79" cy="33" r="9" fill="url(#cps-node)" />
  <circle cx="89" cy="81" r="10" fill="url(#cps-node)" />
  <path d="M45 45l27-8m11 8l5 26m-41 0l34 9" stroke="#f9f4ee" stroke-linecap="round" stroke-width="5" />
  <text
    x="64"
    y="108"
    fill="#ffffff"
    font-family="Sora, Arial, sans-serif"
    font-size="24"
    font-weight="700"
    letter-spacing="1"
    text-anchor="middle"
  >
    CPS
  </text>
</svg>
